<mxfile host="app.diagrams.net" modified="2021-09-19T16:53:34.629Z" agent="5.0 (Windows NT 10.0; Win64; x64) AppleWebKit/537.36 (KHTML, like Gecko) Chrome/93.0.4577.82 Safari/537.36" etag="MoFoXUpkryoscKG3rkCe" version="15.2.9" type="github">
  <diagram id="WUWwVkveKep0P7YJkyuQ" name="Page-1">
    <mxGraphModel dx="2370" dy="1270" grid="1" gridSize="10" guides="1" tooltips="1" connect="1" arrows="1" fold="1" page="1" pageScale="1" pageWidth="1654" pageHeight="2336" math="0" shadow="0">
      <root>
        <mxCell id="0" />
        <mxCell id="1" parent="0" />
        <mxCell id="Smb-YDTAnR31vsJaCFI--1" value="Консоль" style="swimlane;fontStyle=0;childLayout=stackLayout;horizontal=1;startSize=26;horizontalStack=0;resizeParent=1;resizeParentMax=0;resizeLast=0;collapsible=1;marginBottom=0;" vertex="1" parent="1">
          <mxGeometry x="330" y="140" width="140" height="100" as="geometry" />
        </mxCell>
        <mxCell id="Smb-YDTAnR31vsJaCFI--2" value="Вес&#xa;Процессор&#xa;Видеокарта&#xa;Оперативная память" style="text;strokeColor=none;fillColor=none;align=left;verticalAlign=top;spacingLeft=4;spacingRight=4;overflow=hidden;rotatable=0;points=[[0,0.5],[1,0.5]];portConstraint=eastwest;" vertex="1" parent="Smb-YDTAnR31vsJaCFI--1">
          <mxGeometry y="26" width="140" height="74" as="geometry" />
        </mxCell>
        <mxCell id="Smb-YDTAnR31vsJaCFI--3" value="Завод" style="swimlane;fontStyle=0;childLayout=stackLayout;horizontal=1;startSize=26;horizontalStack=0;resizeParent=1;resizeParentMax=0;resizeLast=0;collapsible=1;marginBottom=0;" vertex="1" parent="1">
          <mxGeometry x="1030" y="430" width="140" height="100" as="geometry" />
        </mxCell>
        <mxCell id="Smb-YDTAnR31vsJaCFI--4" value="Отдел сотрудников" style="swimlane;fontStyle=0;childLayout=stackLayout;horizontal=1;startSize=26;horizontalStack=0;resizeParent=1;resizeParentMax=0;resizeLast=0;collapsible=1;marginBottom=0;" vertex="1" parent="1">
          <mxGeometry x="50" y="120" width="130" height="120" as="geometry" />
        </mxCell>
        <mxCell id="Smb-YDTAnR31vsJaCFI--5" value="Менеджеры&#xa;Директор&#xa;Рабочие&#xa;Дизайнеры&#xa;Аналитический отдел&#xa;Отдел рекламы" style="text;strokeColor=none;fillColor=none;align=left;verticalAlign=top;spacingLeft=4;spacingRight=4;overflow=hidden;rotatable=0;points=[[0,0.5],[1,0.5]];portConstraint=eastwest;" vertex="1" parent="Smb-YDTAnR31vsJaCFI--4">
          <mxGeometry y="26" width="130" height="94" as="geometry" />
        </mxCell>
        <mxCell id="Smb-YDTAnR31vsJaCFI--6" value="" style="endArrow=none;html=1;entryX=1.015;entryY=0.589;entryDx=0;entryDy=0;entryPerimeter=0;exitX=0;exitY=0.5;exitDx=0;exitDy=0;" edge="1" parent="1" source="Smb-YDTAnR31vsJaCFI--2" target="Smb-YDTAnR31vsJaCFI--5">
          <mxGeometry width="50" height="50" relative="1" as="geometry">
            <mxPoint x="400" y="320" as="sourcePoint" />
            <mxPoint x="450" y="270" as="targetPoint" />
          </mxGeometry>
        </mxCell>
        <mxCell id="Smb-YDTAnR31vsJaCFI--7" value="Консоль" style="swimlane;fontStyle=0;childLayout=stackLayout;horizontal=1;startSize=26;horizontalStack=0;resizeParent=1;resizeParentMax=0;resizeLast=0;collapsible=1;marginBottom=0;" vertex="1" parent="1">
          <mxGeometry x="727" y="470" width="140" height="100" as="geometry" />
        </mxCell>
        <mxCell id="Smb-YDTAnR31vsJaCFI--8" value="Вес&#xa;Процессор&#xa;Видеокарта&#xa;Оперативная память" style="text;strokeColor=none;fillColor=none;align=left;verticalAlign=top;spacingLeft=4;spacingRight=4;overflow=hidden;rotatable=0;points=[[0,0.5],[1,0.5]];portConstraint=eastwest;" vertex="1" parent="Smb-YDTAnR31vsJaCFI--7">
          <mxGeometry y="26" width="140" height="74" as="geometry" />
        </mxCell>
        <mxCell id="Smb-YDTAnR31vsJaCFI--9" value="Дизайн" style="swimlane;fontStyle=0;childLayout=stackLayout;horizontal=1;startSize=26;horizontalStack=0;resizeParent=1;resizeParentMax=0;resizeLast=0;collapsible=1;marginBottom=0;" vertex="1" parent="1">
          <mxGeometry x="50" y="270" width="140" height="80" as="geometry" />
        </mxCell>
        <mxCell id="Smb-YDTAnR31vsJaCFI--10" value="Цвета&#xa;" style="text;strokeColor=none;fillColor=none;align=left;verticalAlign=top;spacingLeft=4;spacingRight=4;overflow=hidden;rotatable=0;points=[[0,0.5],[1,0.5]];portConstraint=eastwest;" vertex="1" parent="Smb-YDTAnR31vsJaCFI--9">
          <mxGeometry y="26" width="140" height="54" as="geometry" />
        </mxCell>
        <mxCell id="Smb-YDTAnR31vsJaCFI--11" value="" style="endArrow=none;html=1;entryX=-0.017;entryY=0.214;entryDx=0;entryDy=0;entryPerimeter=0;exitX=1;exitY=0.5;exitDx=0;exitDy=0;" edge="1" parent="1" source="Smb-YDTAnR31vsJaCFI--8">
          <mxGeometry width="50" height="50" relative="1" as="geometry">
            <mxPoint x="780" y="490" as="sourcePoint" />
            <mxPoint x="1027.62" y="471.8359999999998" as="targetPoint" />
          </mxGeometry>
        </mxCell>
        <mxCell id="Smb-YDTAnR31vsJaCFI--12" value="Код консоли" style="edgeLabel;html=1;align=center;verticalAlign=middle;resizable=0;points=[];" vertex="1" connectable="0" parent="Smb-YDTAnR31vsJaCFI--11">
          <mxGeometry x="-0.3865" y="1" relative="1" as="geometry">
            <mxPoint as="offset" />
          </mxGeometry>
        </mxCell>
        <mxCell id="Smb-YDTAnR31vsJaCFI--13" value="Сотрудник" style="swimlane;fontStyle=0;childLayout=stackLayout;horizontal=1;startSize=26;horizontalStack=0;resizeParent=1;resizeParentMax=0;resizeLast=0;collapsible=1;marginBottom=0;" vertex="1" parent="1">
          <mxGeometry x="1300" y="440" width="140" height="100" as="geometry" />
        </mxCell>
        <mxCell id="Smb-YDTAnR31vsJaCFI--14" value="" style="endArrow=none;html=1;entryX=0;entryY=0.5;entryDx=0;entryDy=0;exitX=1;exitY=0.5;exitDx=0;exitDy=0;" edge="1" parent="1" source="Smb-YDTAnR31vsJaCFI--3" target="Smb-YDTAnR31vsJaCFI--13">
          <mxGeometry width="50" height="50" relative="1" as="geometry">
            <mxPoint x="1170" y="520" as="sourcePoint" />
            <mxPoint x="1300" y="360" as="targetPoint" />
          </mxGeometry>
        </mxCell>
        <mxCell id="Smb-YDTAnR31vsJaCFI--15" value="Код сотрудника" style="edgeLabel;html=1;align=center;verticalAlign=middle;resizable=0;points=[];" vertex="1" connectable="0" parent="Smb-YDTAnR31vsJaCFI--14">
          <mxGeometry x="-0.1276" y="-1" relative="1" as="geometry">
            <mxPoint x="1" as="offset" />
          </mxGeometry>
        </mxCell>
        <mxCell id="Smb-YDTAnR31vsJaCFI--16" value="" style="endArrow=none;html=1;entryX=0.5;entryY=1;entryDx=0;entryDy=0;exitX=0.5;exitY=0;exitDx=0;exitDy=0;" edge="1" parent="1" source="Smb-YDTAnR31vsJaCFI--18" target="Smb-YDTAnR31vsJaCFI--3">
          <mxGeometry width="50" height="50" relative="1" as="geometry">
            <mxPoint x="1150" y="660" as="sourcePoint" />
            <mxPoint x="1200" y="610" as="targetPoint" />
          </mxGeometry>
        </mxCell>
        <mxCell id="Smb-YDTAnR31vsJaCFI--17" value="Код склада" style="edgeLabel;html=1;align=center;verticalAlign=middle;resizable=0;points=[];" vertex="1" connectable="0" parent="Smb-YDTAnR31vsJaCFI--16">
          <mxGeometry x="-0.1227" y="-2" relative="1" as="geometry">
            <mxPoint as="offset" />
          </mxGeometry>
        </mxCell>
        <mxCell id="Smb-YDTAnR31vsJaCFI--18" value="Склад" style="swimlane;fontStyle=0;childLayout=stackLayout;horizontal=1;startSize=26;horizontalStack=0;resizeParent=1;resizeParentMax=0;resizeLast=0;collapsible=1;marginBottom=0;" vertex="1" parent="1">
          <mxGeometry x="840" y="630" width="140" height="100" as="geometry" />
        </mxCell>
        <mxCell id="Smb-YDTAnR31vsJaCFI--19" value="Поставщик" style="swimlane;fontStyle=0;childLayout=stackLayout;horizontal=1;startSize=26;horizontalStack=0;resizeParent=1;resizeParentMax=0;resizeLast=0;collapsible=1;marginBottom=0;" vertex="1" parent="1">
          <mxGeometry x="1240" y="250" width="140" height="100" as="geometry" />
        </mxCell>
        <mxCell id="Smb-YDTAnR31vsJaCFI--20" value="" style="endArrow=none;html=1;entryX=0;entryY=1;entryDx=0;entryDy=0;exitX=0.75;exitY=0;exitDx=0;exitDy=0;" edge="1" parent="1" source="Smb-YDTAnR31vsJaCFI--3" target="Smb-YDTAnR31vsJaCFI--19">
          <mxGeometry width="50" height="50" relative="1" as="geometry">
            <mxPoint x="1350" y="460" as="sourcePoint" />
            <mxPoint x="1400" y="410" as="targetPoint" />
          </mxGeometry>
        </mxCell>
        <mxCell id="Smb-YDTAnR31vsJaCFI--21" value="Код поставщика" style="edgeLabel;html=1;align=center;verticalAlign=middle;resizable=0;points=[];" vertex="1" connectable="0" parent="Smb-YDTAnR31vsJaCFI--20">
          <mxGeometry x="-0.3882" y="1" relative="1" as="geometry">
            <mxPoint y="-1" as="offset" />
          </mxGeometry>
        </mxCell>
        <mxCell id="Smb-YDTAnR31vsJaCFI--22" value="Комплектующие" style="swimlane;fontStyle=0;childLayout=stackLayout;horizontal=1;startSize=26;horizontalStack=0;resizeParent=1;resizeParentMax=0;resizeLast=0;collapsible=1;marginBottom=0;" vertex="1" parent="1">
          <mxGeometry x="940" y="120" width="140" height="100" as="geometry" />
        </mxCell>
        <mxCell id="Smb-YDTAnR31vsJaCFI--23" value="" style="endArrow=none;html=1;entryX=1;entryY=0.75;entryDx=0;entryDy=0;exitX=0;exitY=0.5;exitDx=0;exitDy=0;" edge="1" parent="1" source="Smb-YDTAnR31vsJaCFI--19" target="Smb-YDTAnR31vsJaCFI--22">
          <mxGeometry width="50" height="50" relative="1" as="geometry">
            <mxPoint x="1350" y="460" as="sourcePoint" />
            <mxPoint x="1400" y="410" as="targetPoint" />
          </mxGeometry>
        </mxCell>
        <mxCell id="Smb-YDTAnR31vsJaCFI--24" value="Код комплектующих" style="edgeLabel;html=1;align=center;verticalAlign=middle;resizable=0;points=[];" vertex="1" connectable="0" parent="Smb-YDTAnR31vsJaCFI--23">
          <mxGeometry x="0.394" y="2" relative="1" as="geometry">
            <mxPoint x="28" as="offset" />
          </mxGeometry>
        </mxCell>
        <mxCell id="Smb-YDTAnR31vsJaCFI--25" value="Прототип" style="swimlane;fontStyle=0;childLayout=stackLayout;horizontal=1;startSize=26;horizontalStack=0;resizeParent=1;resizeParentMax=0;resizeLast=0;collapsible=1;marginBottom=0;" vertex="1" parent="1">
          <mxGeometry x="397" y="650" width="140" height="100" as="geometry" />
        </mxCell>
        <mxCell id="Smb-YDTAnR31vsJaCFI--26" value="" style="endArrow=none;html=1;entryX=-0.007;entryY=1.01;entryDx=0;entryDy=0;entryPerimeter=0;exitX=1;exitY=0;exitDx=0;exitDy=0;" edge="1" parent="1" source="Smb-YDTAnR31vsJaCFI--25" target="Smb-YDTAnR31vsJaCFI--8">
          <mxGeometry width="50" height="50" relative="1" as="geometry">
            <mxPoint x="460" y="800" as="sourcePoint" />
            <mxPoint x="510" y="750" as="targetPoint" />
          </mxGeometry>
        </mxCell>
        <mxCell id="Smb-YDTAnR31vsJaCFI--27" value="Код прототипа" style="edgeLabel;html=1;align=center;verticalAlign=middle;resizable=0;points=[];" vertex="1" connectable="0" parent="Smb-YDTAnR31vsJaCFI--26">
          <mxGeometry x="-0.1718" y="4" relative="1" as="geometry">
            <mxPoint y="-1" as="offset" />
          </mxGeometry>
        </mxCell>
        <mxCell id="Smb-YDTAnR31vsJaCFI--28" value="Дизайн" style="swimlane;fontStyle=0;childLayout=stackLayout;horizontal=1;startSize=26;horizontalStack=0;resizeParent=1;resizeParentMax=0;resizeLast=0;collapsible=1;marginBottom=0;" vertex="1" parent="1">
          <mxGeometry x="587" y="810" width="140" height="100" as="geometry" />
        </mxCell>
        <mxCell id="Smb-YDTAnR31vsJaCFI--29" value="Форм-фактор" style="swimlane;fontStyle=0;childLayout=stackLayout;horizontal=1;startSize=26;horizontalStack=0;resizeParent=1;resizeParentMax=0;resizeLast=0;collapsible=1;marginBottom=0;" vertex="1" parent="1">
          <mxGeometry x="187" y="500" width="140" height="100" as="geometry" />
        </mxCell>
        <mxCell id="Smb-YDTAnR31vsJaCFI--30" value="" style="endArrow=none;html=1;entryX=1;entryY=1;entryDx=0;entryDy=0;exitX=0;exitY=0;exitDx=0;exitDy=0;" edge="1" parent="1" source="Smb-YDTAnR31vsJaCFI--25" target="Smb-YDTAnR31vsJaCFI--29">
          <mxGeometry width="50" height="50" relative="1" as="geometry">
            <mxPoint x="567" y="720" as="sourcePoint" />
            <mxPoint x="617" y="670" as="targetPoint" />
          </mxGeometry>
        </mxCell>
        <mxCell id="Smb-YDTAnR31vsJaCFI--31" value="Код форм-фактора" style="edgeLabel;html=1;align=center;verticalAlign=middle;resizable=0;points=[];" vertex="1" connectable="0" parent="Smb-YDTAnR31vsJaCFI--30">
          <mxGeometry x="0.322" relative="1" as="geometry">
            <mxPoint as="offset" />
          </mxGeometry>
        </mxCell>
        <mxCell id="Smb-YDTAnR31vsJaCFI--32" value="" style="endArrow=none;html=1;exitX=1;exitY=0.75;exitDx=0;exitDy=0;entryX=0;entryY=0.5;entryDx=0;entryDy=0;" edge="1" parent="1" source="Smb-YDTAnR31vsJaCFI--25" target="Smb-YDTAnR31vsJaCFI--28">
          <mxGeometry width="50" height="50" relative="1" as="geometry">
            <mxPoint x="567" y="720" as="sourcePoint" />
            <mxPoint x="617" y="670" as="targetPoint" />
          </mxGeometry>
        </mxCell>
        <mxCell id="Smb-YDTAnR31vsJaCFI--33" value="Код дизайна" style="edgeLabel;html=1;align=center;verticalAlign=middle;resizable=0;points=[];" vertex="1" connectable="0" parent="Smb-YDTAnR31vsJaCFI--32">
          <mxGeometry x="-0.4765" y="-3" relative="1" as="geometry">
            <mxPoint x="16" y="8" as="offset" />
          </mxGeometry>
        </mxCell>
        <mxCell id="Smb-YDTAnR31vsJaCFI--34" value="ПО" style="swimlane;fontStyle=0;childLayout=stackLayout;horizontal=1;startSize=26;horizontalStack=0;resizeParent=1;resizeParentMax=0;resizeLast=0;collapsible=1;marginBottom=0;" vertex="1" parent="1">
          <mxGeometry x="307" y="920" width="140" height="100" as="geometry" />
        </mxCell>
        <mxCell id="Smb-YDTAnR31vsJaCFI--35" value="" style="endArrow=none;html=1;entryX=0.25;entryY=1;entryDx=0;entryDy=0;exitX=0.25;exitY=0;exitDx=0;exitDy=0;" edge="1" parent="1" source="Smb-YDTAnR31vsJaCFI--34" target="Smb-YDTAnR31vsJaCFI--25">
          <mxGeometry width="50" height="50" relative="1" as="geometry">
            <mxPoint x="587" y="760" as="sourcePoint" />
            <mxPoint x="637" y="710" as="targetPoint" />
          </mxGeometry>
        </mxCell>
        <mxCell id="Smb-YDTAnR31vsJaCFI--36" value="Код ПО" style="edgeLabel;html=1;align=center;verticalAlign=middle;resizable=0;points=[];" vertex="1" connectable="0" parent="Smb-YDTAnR31vsJaCFI--35">
          <mxGeometry x="-0.2564" y="-2" relative="1" as="geometry">
            <mxPoint y="-1" as="offset" />
          </mxGeometry>
        </mxCell>
        <mxCell id="Smb-YDTAnR31vsJaCFI--37" value="Разработчик" style="swimlane;fontStyle=0;childLayout=stackLayout;horizontal=1;startSize=26;horizontalStack=0;resizeParent=1;resizeParentMax=0;resizeLast=0;collapsible=1;marginBottom=0;" vertex="1" parent="1">
          <mxGeometry x="17" y="930" width="140" height="100" as="geometry" />
        </mxCell>
        <mxCell id="Smb-YDTAnR31vsJaCFI--38" value="" style="endArrow=none;html=1;exitX=1;exitY=0.5;exitDx=0;exitDy=0;entryX=0;entryY=0.5;entryDx=0;entryDy=0;" edge="1" parent="1" source="Smb-YDTAnR31vsJaCFI--37" target="Smb-YDTAnR31vsJaCFI--34">
          <mxGeometry width="50" height="50" relative="1" as="geometry">
            <mxPoint x="777" y="740" as="sourcePoint" />
            <mxPoint x="827" y="690" as="targetPoint" />
          </mxGeometry>
        </mxCell>
        <mxCell id="Smb-YDTAnR31vsJaCFI--39" value="Код разработчика" style="edgeLabel;html=1;align=center;verticalAlign=middle;resizable=0;points=[];" vertex="1" connectable="0" parent="Smb-YDTAnR31vsJaCFI--38">
          <mxGeometry x="-0.372" y="-4" relative="1" as="geometry">
            <mxPoint as="offset" />
          </mxGeometry>
        </mxCell>
        <mxCell id="Smb-YDTAnR31vsJaCFI--40" value="Оборудование" style="swimlane;fontStyle=0;childLayout=stackLayout;horizontal=1;startSize=26;horizontalStack=0;resizeParent=1;resizeParentMax=0;resizeLast=0;collapsible=1;marginBottom=0;" vertex="1" parent="1">
          <mxGeometry x="790" y="240" width="140" height="100" as="geometry" />
        </mxCell>
        <mxCell id="Smb-YDTAnR31vsJaCFI--41" value="" style="endArrow=none;html=1;entryX=1;entryY=1;entryDx=0;entryDy=0;exitX=0.25;exitY=0;exitDx=0;exitDy=0;" edge="1" parent="1" source="Smb-YDTAnR31vsJaCFI--3" target="Smb-YDTAnR31vsJaCFI--40">
          <mxGeometry width="50" height="50" relative="1" as="geometry">
            <mxPoint x="950" y="430" as="sourcePoint" />
            <mxPoint x="1000" y="380" as="targetPoint" />
          </mxGeometry>
        </mxCell>
        <mxCell id="Smb-YDTAnR31vsJaCFI--42" value="Код&amp;nbsp; оборудования" style="edgeLabel;html=1;align=center;verticalAlign=middle;resizable=0;points=[];" vertex="1" connectable="0" parent="Smb-YDTAnR31vsJaCFI--41">
          <mxGeometry x="0.5604" y="-2" relative="1" as="geometry">
            <mxPoint x="30" y="22" as="offset" />
          </mxGeometry>
        </mxCell>
        <mxCell id="Smb-YDTAnR31vsJaCFI--43" value="Целевая аудитория" style="swimlane;fontStyle=0;childLayout=stackLayout;horizontal=1;startSize=26;horizontalStack=0;resizeParent=1;resizeParentMax=0;resizeLast=0;collapsible=1;marginBottom=0;" vertex="1" parent="1">
          <mxGeometry x="1360" y="980" width="140" height="100" as="geometry" />
        </mxCell>
        <mxCell id="Smb-YDTAnR31vsJaCFI--44" value="Отдел рекламы" style="swimlane;fontStyle=0;childLayout=stackLayout;horizontal=1;startSize=26;horizontalStack=0;resizeParent=1;resizeParentMax=0;resizeLast=0;collapsible=1;marginBottom=0;" vertex="1" parent="1">
          <mxGeometry x="950" y="880" width="140" height="100" as="geometry" />
        </mxCell>
        <mxCell id="Smb-YDTAnR31vsJaCFI--45" value="Инвесторы" style="swimlane;fontStyle=0;childLayout=stackLayout;horizontal=1;startSize=26;horizontalStack=0;resizeParent=1;resizeParentMax=0;resizeLast=0;collapsible=1;marginBottom=0;" vertex="1" parent="1">
          <mxGeometry x="1100" y="1040" width="140" height="100" as="geometry" />
        </mxCell>
      </root>
    </mxGraphModel>
  </diagram>
</mxfile>
